<mxfile host="app.diagrams.net" modified="2021-11-03T14:54:55.877Z" agent="5.0 (Windows NT 10.0; Win64; x64) AppleWebKit/537.36 (KHTML, like Gecko) Chrome/95.0.4638.69 Safari/537.36" etag="CgJkLosmlMribB-hLKKB" version="15.6.8" type="github">
  <diagram id="nWh4i7aCEB4WHvOJPP8o" name="Page-1">
    <mxGraphModel dx="1550" dy="835" grid="1" gridSize="10" guides="1" tooltips="1" connect="1" arrows="1" fold="1" page="1" pageScale="1" pageWidth="827" pageHeight="1169" math="0" shadow="0">
      <root>
        <mxCell id="0" />
        <mxCell id="1" parent="0" />
        <mxCell id="BwvZNgGaLuB2nNxKJBUf-1" value="&lt;i style=&quot;font-size: 18px&quot;&gt;data_block&lt;/i&gt;" style="rounded=0;whiteSpace=wrap;html=1;fillColor=#60a917;strokeColor=#2D7600;fontColor=#ffffff;" parent="1" vertex="1">
          <mxGeometry x="160" y="220" width="210" height="60" as="geometry" />
        </mxCell>
        <mxCell id="BwvZNgGaLuB2nNxKJBUf-2" value="&lt;font size=&quot;1&quot;&gt;&lt;i style=&quot;font-size: 18px&quot;&gt;filter_block&lt;/i&gt;&lt;/font&gt;" style="rounded=0;whiteSpace=wrap;html=1;fillColor=#1ba1e2;strokeColor=#006EAF;fontColor=#ffffff;" parent="1" vertex="1">
          <mxGeometry x="160" y="280" width="210" height="60" as="geometry" />
        </mxCell>
        <mxCell id="3iq7CdBpNYwRC2LymsqA-7" style="edgeStyle=orthogonalEdgeStyle;rounded=0;orthogonalLoop=1;jettySize=auto;html=1;entryX=1;entryY=0.25;entryDx=0;entryDy=0;exitX=1;exitY=0.5;exitDx=0;exitDy=0;fillColor=#d5e8d4;strokeColor=#82b366;curved=1;" edge="1" parent="1" source="BwvZNgGaLuB2nNxKJBUf-3" target="BwvZNgGaLuB2nNxKJBUf-2">
          <mxGeometry relative="1" as="geometry">
            <Array as="points">
              <mxPoint x="400" y="370" />
              <mxPoint x="400" y="295" />
            </Array>
          </mxGeometry>
        </mxCell>
        <mxCell id="BwvZNgGaLuB2nNxKJBUf-3" value="&lt;font style=&quot;font-size: 18px&quot;&gt;meta_index_block&lt;/font&gt;" style="rounded=0;whiteSpace=wrap;html=1;fillColor=#0050ef;strokeColor=#001DBC;fontColor=#ffffff;" parent="1" vertex="1">
          <mxGeometry x="160" y="340" width="210" height="60" as="geometry" />
        </mxCell>
        <mxCell id="3iq7CdBpNYwRC2LymsqA-6" style="edgeStyle=orthogonalEdgeStyle;rounded=0;orthogonalLoop=1;jettySize=auto;html=1;entryX=1;entryY=0.5;entryDx=0;entryDy=0;exitX=1;exitY=0.5;exitDx=0;exitDy=0;fillColor=#dae8fc;strokeColor=#6c8ebf;curved=1;" edge="1" parent="1" source="BwvZNgGaLuB2nNxKJBUf-4" target="3iq7CdBpNYwRC2LymsqA-4">
          <mxGeometry relative="1" as="geometry">
            <Array as="points">
              <mxPoint x="420" y="430" />
              <mxPoint x="420" y="190" />
            </Array>
          </mxGeometry>
        </mxCell>
        <mxCell id="BwvZNgGaLuB2nNxKJBUf-4" value="&lt;font style=&quot;font-size: 18px&quot;&gt;index_block&lt;/font&gt;" style="rounded=0;whiteSpace=wrap;html=1;fillColor=#d80073;strokeColor=#A50040;fontColor=#ffffff;" parent="1" vertex="1">
          <mxGeometry x="160" y="400" width="210" height="60" as="geometry" />
        </mxCell>
        <mxCell id="3iq7CdBpNYwRC2LymsqA-2" style="edgeStyle=orthogonalEdgeStyle;rounded=0;orthogonalLoop=1;jettySize=auto;html=1;entryX=0;entryY=0.5;entryDx=0;entryDy=0;exitX=0;exitY=0.5;exitDx=0;exitDy=0;fillColor=#f8cecc;strokeColor=#b85450;curved=1;" edge="1" parent="1" source="BwvZNgGaLuB2nNxKJBUf-5" target="BwvZNgGaLuB2nNxKJBUf-4">
          <mxGeometry relative="1" as="geometry" />
        </mxCell>
        <mxCell id="3iq7CdBpNYwRC2LymsqA-3" style="edgeStyle=orthogonalEdgeStyle;rounded=0;orthogonalLoop=1;jettySize=auto;html=1;entryX=-0.01;entryY=0.623;entryDx=0;entryDy=0;entryPerimeter=0;fillColor=#f8cecc;strokeColor=#b85450;curved=1;" edge="1" parent="1" target="BwvZNgGaLuB2nNxKJBUf-3">
          <mxGeometry relative="1" as="geometry">
            <mxPoint x="158" y="490" as="sourcePoint" />
            <Array as="points">
              <mxPoint x="110" y="490" />
              <mxPoint x="110" y="377" />
            </Array>
          </mxGeometry>
        </mxCell>
        <mxCell id="BwvZNgGaLuB2nNxKJBUf-5" value="&lt;font style=&quot;font-size: 18px&quot;&gt;footer&lt;/font&gt;" style="rounded=0;whiteSpace=wrap;html=1;fillColor=#a20025;strokeColor=#6F0000;fontColor=#ffffff;" parent="1" vertex="1">
          <mxGeometry x="160" y="460" width="210" height="60" as="geometry" />
        </mxCell>
        <mxCell id="3iq7CdBpNYwRC2LymsqA-4" value="&lt;i style=&quot;font-size: 18px&quot;&gt;data_block&lt;/i&gt;" style="rounded=0;whiteSpace=wrap;html=1;fillColor=#60a917;strokeColor=#2D7600;fontColor=#ffffff;" vertex="1" parent="1">
          <mxGeometry x="160" y="160" width="210" height="60" as="geometry" />
        </mxCell>
        <mxCell id="3iq7CdBpNYwRC2LymsqA-5" value="&lt;font size=&quot;1&quot;&gt;&lt;i style=&quot;font-size: 18px&quot;&gt;data_block&lt;/i&gt;&lt;/font&gt;" style="rounded=0;whiteSpace=wrap;html=1;fillColor=#60a917;strokeColor=#2D7600;fontColor=#ffffff;" vertex="1" parent="1">
          <mxGeometry x="160" y="100" width="210" height="60" as="geometry" />
        </mxCell>
      </root>
    </mxGraphModel>
  </diagram>
</mxfile>
